<?xml version="1.0" encoding="UTF-8"?>
<!DOCTYPE svg PUBLIC "-//W3C//DTD SVG 1.1//EN" "http://www.w3.org/Graphics/SVG/1.1/DTD/svg11.dtd">
<!-- Creator: CorelDRAW X6 -->
<svg xmlns="http://www.w3.org/2000/svg" xml:space="preserve" width="100%" height="100%" version="1.1" shape-rendering="geometricPrecision" text-rendering="geometricPrecision" image-rendering="optimizeQuality" fill-rule="evenodd" clip-rule="evenodd"
viewBox="0 0 5009 5011"
 xmlns:xlink="http://www.w3.org/1999/xlink">
 <g id="Warstwa_x0020_1">
  <metadata id="CorelCorpID_0Corel-Layer"/>
  <g id="_590509792">
   <polygon fill="#434242" stroke="#2B2A29" stroke-width="7.62" points="752,4293 909,4433 1075,4559 1254,4672 1438,4768 1631,4849 1830,4914 2035,4963 2242,4993 2451,5007 2660,5001 2869,4981 3076,4940 3276,4883 3473,4810 3662,4723 3845,4618 4017,4498 4177,4364 4327,4218 4463,4060 4587,3889 4697,3711 4790,3522 4867,3327 4926,3126 4971,2921 4997,2714 5005,2505 4997,2297 4971,2088 4926,1883 4867,1682 4790,1487 4697,1300 4587,1120 4463,951 4327,793 4177,645 4017,511 3845,393 3662,288 3473,199 3276,126 3076,69 2869,30 2660,8 2451,4 2242,16 2035,46 1830,95 1631,160 1438,241 1254,339 1075,450 909,578 752,718 610,870 479,1035 363,1209 264,1392 178,1584 109,1781 57,1984 22,2191 4,2400 4,2609 22,2818 57,3025 109,3228 178,3427 264,3617 363,3800 479,3976 610,4139 "/>
   <polygon fill="#EBECEC" stroke="#2B2A29" stroke-width="7.62" points="813,4230 966,4366 1126,4488 1296,4595 1475,4689 1661,4768 1854,4831 2051,4877 2252,4906 2453,4918 2656,4914 2856,4894 3055,4855 3250,4802 3439,4731 3621,4644 3798,4543 3964,4429 4118,4299 4265,4157 4396,4005 4514,3841 4620,3668 4709,3487 4784,3299 4843,3106 4883,2907 4910,2706 4918,2505 4910,2303 4883,2102 4843,1905 4784,1710 4709,1523 4620,1341 4514,1168 4396,1006 4265,852 4118,710 3964,582 3798,466 3621,365 3439,280 3250,209 3055,154 2856,115 2656,95 2453,91 2252,103 2051,134 1854,178 1661,241 1475,320 1296,414 1126,523 966,645 813,779 675,927 550,1085 438,1254 341,1432 259,1617 193,1808 142,2002 107,2203 91,2404 91,2607 107,2808 142,3007 193,3203 259,3394 341,3579 438,3755 550,3924 675,4082 "/>
   <g>
    <line fill="none" stroke="#2B2A29" stroke-width="35.28" x1="880" y1="3867" x2="1181" y2= "3615" />
    <line fill="none" stroke="#2B2A29" stroke-width="35.28" x1="1008" y1="3368" x2="844" y2= "3463" />
    <line fill="none" stroke="#2B2A29" stroke-width="35.28" x1="880" y1="3096" x2="513" y2= "3230" />
    <line fill="none" stroke="#2B2A29" stroke-width="35.28" x1="617" y1="2838" x2="803" y2= "2804" />
    <line fill="none" stroke="#2B2A29" stroke-width="35.28" x1="777" y1="2505" x2="588" y2= "2505" />
    <line fill="none" stroke="#2B2A29" stroke-width="35.28" x1="777" y1="2505" x2="385" y2= "2505" />
    <line fill="none" stroke="#2B2A29" stroke-width="35.28" x1="617" y1="2173" x2="803" y2= "2205" />
    <line fill="none" stroke="#2B2A29" stroke-width="35.28" x1="880" y1="1915" x2="513" y2= "1781" />
    <line fill="none" stroke="#2B2A29" stroke-width="35.28" x1="844" y1="1546" x2="1008" y2= "1641" />
    <line fill="none" stroke="#2B2A29" stroke-width="35.28" x1="1181" y1="1396" x2="880" y2= "1142" />
    <line fill="none" stroke="#2B2A29" stroke-width="35.28" x1="1272" y1="1037" x2="1394" y2= "1183" />
    <line fill="none" stroke="#2B2A29" stroke-width="35.28" x1="1641" y1="1010" x2="1444" y2= "669" />
    <line fill="none" stroke="#2B2A29" stroke-width="35.28" x1="1848" y1="704" x2="1913" y2= "882" />
    <line fill="none" stroke="#2B2A29" stroke-width="35.28" x1="2203" y1="805" x2="2136" y2= "418" />
    <line fill="none" stroke="#2B2A29" stroke-width="35.28" x1="2804" y1="805" x2="2871" y2= "418" />
    <line fill="none" stroke="#2B2A29" stroke-width="35.28" x1="3159" y1="704" x2="3094" y2= "882" />
    <line fill="none" stroke="#2B2A29" stroke-width="35.28" x1="3368" y1="1010" x2="3563" y2= "669" />
    <line fill="none" stroke="#2B2A29" stroke-width="35.28" x1="3735" y1="1037" x2="3613" y2= "1183" />
    <line fill="none" stroke="#2B2A29" stroke-width="35.28" x1="3826" y1="1396" x2="4127" y2= "1142" />
    <line fill="none" stroke="#2B2A29" stroke-width="35.28" x1="4163" y1="1546" x2="3999" y2= "1641" />
    <line fill="none" stroke="#2B2A29" stroke-width="35.28" x1="4127" y1="1915" x2="4494" y2= "1781" />
    <line fill="none" stroke="#2B2A29" stroke-width="35.28" x1="4390" y1="2173" x2="4204" y2= "2205" />
    <line fill="none" stroke="#2B2A29" stroke-width="35.28" x1="4230" y1="2505" x2="4622" y2= "2505" />
    <line fill="none" stroke="#2B2A29" stroke-width="35.28" x1="4421" y1="2505" x2="4230" y2= "2505" />
    <line fill="none" stroke="#2B2A29" stroke-width="35.28" x1="4204" y1="2804" x2="4390" y2= "2838" />
    <line fill="none" stroke="#2B2A29" stroke-width="35.28" x1="4494" y1="3230" x2="4127" y2= "3096" />
    <line fill="none" stroke="#2B2A29" stroke-width="35.28" x1="3999" y1="3368" x2="4163" y2= "3463" />
    <line fill="none" stroke="#2B2A29" stroke-width="35.28" x1="4127" y1="3867" x2="3826" y2= "3615" />
    <line fill="none" stroke="#2B2A29" stroke-width="35.28" x1="3613" y1="3828" x2="3735" y2= "3972" />
    <line fill="none" stroke="#2B2A29" stroke-width="35.28" x1="3368" y1="4001" x2="3563" y2= "4340" />
    <line fill="none" stroke="#2B2A29" stroke-width="35.28" x1="3159" y1="4305" x2="3094" y2= "4127" />
    <line fill="none" stroke="#2B2A29" stroke-width="35.28" x1="2804" y1="4206" x2="2871" y2= "4591" />
    <line fill="none" stroke="#2B2A29" stroke-width="35.28" x1="2503" y1="4421" x2="2503" y2= "4232" />
    <line fill="none" stroke="#2B2A29" stroke-width="35.28" x1="2503" y1="777" x2="2503" y2= "588" />
    <line fill="none" stroke="#2B2A29" stroke-width="35.28" x1="2203" y1="4206" x2="2136" y2= "4591" />
    <line fill="none" stroke="#2B2A29" stroke-width="35.28" x1="1848" y1="4305" x2="1913" y2= "4127" />
    <line fill="none" stroke="#2B2A29" stroke-width="35.28" x1="1641" y1="4001" x2="1444" y2= "4340" />
    <line fill="none" stroke="#2B2A29" stroke-width="35.28" x1="1272" y1="3972" x2="1394" y2= "3828" />
   </g>
   <polygon fill="#2B2A29" fill-rule="nonzero" points="2647,1285 2585,1285 2407,950 2407,1285 2361,1285 2361,910 2438,910 2600,1216 2600,910 2647,910 "/>
   <polygon id="1" fill="none" fill-rule="nonzero" stroke="#2B2A29" stroke-width="7.62" points="2647,1285 2585,1285 2407,950 2407,1285 2361,1285 2361,910 2438,910 2600,1216 2600,910 2647,910 "/>
   <polygon fill="#2B2A29" fill-rule="nonzero" points="1383,2345 1286,2719 1230,2719 1151,2408 1074,2719 1019,2719 920,2345 972,2345 1050,2656 1127,2345 1178,2345 1256,2659 1334,2345 "/>
   <polygon id="1" fill="none" fill-rule="nonzero" stroke="#2B2A29" stroke-width="7.62" points="1383,2345 1286,2719 1230,2719 1151,2408 1074,2719 1019,2719 920,2345 972,2345 1050,2656 1127,2345 1178,2345 1256,2659 1334,2345 "/>
   <path fill="#2B2A29" fill-rule="nonzero" d="M2665 3983c0,15 -3,29 -10,43 -7,14 -16,26 -29,36 -13,11 -29,19 -47,25 -18,6 -39,9 -64,9 -27,0 -51,-2 -73,-8 -21,-5 -43,-12 -66,-22l0 -62 4 0c19,16 41,28 66,36 25,9 48,13 70,13 31,0 55,-6 72,-17 17,-12 26,-27 26,-46 0,-17 -4,-29 -12,-37 -8,-8 -20,-14 -37,-18 -13,-3 -26,-6 -41,-8 -15,-2 -30,-5 -47,-8 -33,-7 -58,-19 -74,-36 -16,-17 -24,-39 -24,-67 0,-31 13,-57 40,-77 27,-20 60,-30 101,-30 26,0 51,2 72,8 22,5 41,11 58,19l0 59 -4 0c-14,-12 -33,-22 -56,-30 -23,-8 -47,-12 -71,-12 -27,0 -48,5 -64,16 -16,11 -24,25 -24,43 0,16 4,28 12,37 8,9 22,16 43,20 11,2 26,5 46,9 20,3 37,7 50,10 28,7 49,19 63,33 14,15 21,36 21,63z"/>
   <path id="1" fill="none" fill-rule="nonzero" stroke="#2B2A29" stroke-width="7.62" d="M2665 3983c0,15 -3,29 -10,43 -7,14 -16,26 -29,36 -13,11 -29,19 -47,25 -18,6 -39,9 -64,9 -27,0 -51,-2 -73,-8 -21,-5 -43,-12 -66,-22l0 -62 4 0c19,16 41,28 66,36 25,9 48,13 70,13 31,0 55,-6 72,-17 17,-12 26,-27 26,-46 0,-17 -4,-29 -12,-37 -8,-8 -20,-14 -37,-18 -13,-3 -26,-6 -41,-8 -15,-2 -30,-5 -47,-8 -33,-7 -58,-19 -74,-36 -16,-17 -24,-39 -24,-67 0,-31 13,-57 40,-77 27,-20 60,-30 101,-30 26,0 51,2 72,8 22,5 41,11 58,19l0 59 -4 0c-14,-12 -33,-22 -56,-30 -23,-8 -47,-12 -71,-12 -27,0 -48,5 -64,16 -16,11 -24,25 -24,43 0,16 4,28 12,37 8,9 22,16 43,20 11,2 26,5 46,9 20,3 37,7 50,10 28,7 49,19 63,33 14,15 21,36 21,63z"/>
   <polygon fill="#2B2A29" fill-rule="nonzero" points="4053,2699 3807,2699 3807,2325 4053,2325 4053,2369 3857,2369 3857,2471 4053,2471 4053,2516 3857,2516 3857,2655 4053,2655 "/>
   <polygon id="1" fill="none" fill-rule="nonzero" stroke="#2B2A29" stroke-width="7.62" points="4053,2699 3807,2699 3807,2325 4053,2325 4053,2369 3857,2369 3857,2471 4053,2471 4053,2516 3857,2516 3857,2655 4053,2655 "/>
   <path fill="#2B2A29" fill-rule="nonzero" d="M2612 385c0,45 -7,78 -21,99 -14,21 -36,31 -65,31 -30,0 -52,-11 -66,-32 -14,-21 -21,-54 -21,-98 0,-44 7,-77 21,-98 14,-21 36,-32 65,-32 30,0 52,11 66,32 14,22 21,54 21,98zm-44 76c4,-9 7,-20 8,-32 1,-12 2,-27 2,-44 0,-17 -1,-32 -2,-44 -1,-13 -4,-23 -8,-32 -4,-9 -9,-15 -16,-19 -7,-4 -15,-7 -26,-7 -11,0 -19,2 -26,7 -7,4 -12,11 -16,20 -4,8 -6,19 -8,32 -1,13 -2,28 -2,44 0,17 1,32 2,44 1,12 4,22 8,31 4,9 9,15 16,20 7,5 16,7 27,7 11,0 19,-2 26,-7 7,-4 12,-11 16,-20z"/>
  </g>
 </g>
</svg>
