<?xml version="1.0" encoding="UTF-8" standalone="no"?><!-- Created with Inkscape (http://www.inkscape.org/) -->
<svg xmlns:rdf="http://www.w3.org/1999/02/22-rdf-syntax-ns#" xmlns="http://www.w3.org/2000/svg"
    height="155.22" width="155.19" version="1.1" xmlns:cc="http://creativecommons.org/ns#"
    xmlns:dc="http://purl.org/dc/elements/1.1/">
    <defs></defs>
    <metadata>
        <rdf:RDF>
            <cc:Work rdf:about="">
                <dc:format>image/svg+xml</dc:format>
                <dc:type rdf:resource="http://purl.org/dc/dcmitype/StillImage" />
                <dc:title />
            </cc:Work>
        </rdf:RDF>
    </metadata>
    <g transform="translate(-297.40625,-454.75343)">
        <g transform="translate(-7,238.97218)">
            <polygon fill-rule="evenodd" stroke="#231f20"
                points="373.86,370.45,380.33,370.89,386.81,370.7,393.28,370.07,399.7,368.82,405.92,367.05,412.02,364.79,417.87,362.09,423.53,358.82,428.88,355.11,433.84,350.96,438.5,346.44,442.71,341.54,446.55,336.26,449.94,330.72,452.83,324.88,455.22,318.84,457.05,312.62,458.43,306.28,459.25,299.86,459.5,293.39,459.25,286.92,458.43,280.44,457.05,274.1,455.22,267.87,452.83,261.84,449.94,256.06,446.55,250.46,442.71,245.24,438.5,240.34,433.84,235.75,428.88,231.6,423.53,227.96,417.87,224.69,412.02,221.92,405.92,219.66,399.7,217.9,393.28,216.71,386.81,216.02,380.33,215.89,373.86,216.27,367.44,217.21,361.09,218.72,354.93,220.73,348.95,223.24,343.24,226.26,337.7,229.72,332.55,233.68,327.7,238.02,323.3,242.73,319.22,247.82,315.63,253.23,312.55,258.88,309.91,264.85,307.77,270.95,306.14,277.24,305.06,283.65,304.5,290.12,304.5,296.6,305.06,303.07,306.14,309.48,307.77,315.77,309.91,321.92,312.55,327.83,315.63,333.49,319.22,338.96,323.3,343.99,327.7,348.76,332.55,353.1,337.7,357,343.24,360.52,348.95,363.47,354.93,365.99,361.09,368,367.44,369.51"
                stroke-miterlimit="22.92560005" clip-rule="evenodd" stroke-width="0.21600001"
                fill="#404041" />
            <polygon fill-rule="evenodd" stroke="#231f20"
                points="374.17,367.75,380.39,368.12,386.68,368,392.91,367.37,399.07,366.18,405.11,364.54,410.96,362.34,416.61,359.64,422.08,356.5,427.24,352.98,432.02,348.95,436.55,344.55,440.64,339.84,444.28,334.75,447.55,329.4,450.32,323.81,452.64,317.96,454.47,312,455.73,305.84,456.54,299.61,456.79,293.39,456.54,287.1,455.73,280.88,454.47,274.78,452.64,268.75,450.32,262.97,447.55,257.31,444.28,251.97,440.64,246.94,436.55,242.16,432.02,237.76,427.24,233.8,422.08,230.22,416.61,227.08,410.96,224.44,405.11,222.24,399.07,220.54,392.91,219.35,386.68,218.72,380.39,218.59,374.17,218.97,367.95,219.91,361.84,221.3,355.87,223.24,350.09,225.7,344.55,228.59,339.27,231.98,334.31,235.75,329.59,239.9,325.31,244.49,321.42,249.39,317.96,254.61,314.94,260.14,312.42,265.86,310.35,271.77,308.78,277.8,307.71,284.02,307.2,290.25,307.2,296.53,307.71,302.75,308.78,308.92,310.35,315.01,312.42,320.92,314.94,326.64,317.96,332.11,321.42,337.32,325.31,342.23,329.59,346.82,334.31,351.03,339.27,354.8,344.55,358.13,350.09,361.02,355.87,363.47,361.84,365.42,367.95,366.87"
                stroke-miterlimit="22.92560005" clip-rule="evenodd" stroke-width="0.21600001"
                fill="#e6e7e8" />
            <line stroke-width="1.0001" y2="327.77" x2="340.97" stroke="#231f20"
                stroke-miterlimit="22.926" y1="335.56" clip-rule="evenodd" x1="331.66"
                fill="none" />
            <line stroke-width="1.0001" y2="323.06" x2="330.53" stroke="#231f20"
                stroke-miterlimit="22.926" y1="320.1" clip-rule="evenodd" x1="335.63" fill="none" />
            <line stroke-width="1.0001" y2="315.83" x2="320.28" stroke="#231f20"
                stroke-miterlimit="22.926" y1="311.68" clip-rule="evenodd" x1="331.66"
                fill="none" />
            <line stroke-width="1.0001" y2="302.63" x2="329.27" stroke="#231f20"
                stroke-miterlimit="22.926" y1="303.7" clip-rule="evenodd" x1="323.49" fill="none" />
            <line stroke-width="1.0001" y2="293.39" x2="322.61" stroke="#231f20"
                stroke-miterlimit="22.926" y1="293.39" clip-rule="evenodd" x1="328.46"
                fill="none" />
            <line stroke-width="1.0001" y2="293.39" x2="316.32" stroke="#231f20"
                stroke-miterlimit="22.926" y1="293.39" clip-rule="evenodd" x1="328.46"
                fill="none" />
            <line stroke-width="1.0001" y2="284.09" x2="329.27" stroke="#231f20"
                stroke-miterlimit="22.926" y1="283.08" clip-rule="evenodd" x1="323.49"
                fill="none" />
            <line stroke-width="1.0001" y2="270.95" x2="320.28" stroke="#231f20"
                stroke-miterlimit="22.926" y1="275.1" clip-rule="evenodd" x1="331.66" fill="none" />
            <line stroke-width="1.0001" y2="266.61" x2="335.63" stroke="#231f20"
                stroke-miterlimit="22.926" y1="263.66" clip-rule="evenodd" x1="330.53"
                fill="none" />
            <line stroke-width="1.0001" y2="251.15" x2="331.66" stroke="#231f20"
                stroke-miterlimit="22.926" y1="259.01" clip-rule="evenodd" x1="340.97"
                fill="none" />
            <line stroke-width="1.0001" y2="252.41" x2="347.58" stroke="#231f20"
                stroke-miterlimit="22.926" y1="247.88" clip-rule="evenodd" x1="343.8" fill="none" />
            <line stroke-width="1.0001" y2="236.51" x2="349.15" stroke="#231f20"
                stroke-miterlimit="22.926" y1="247.06" clip-rule="evenodd" x1="355.24"
                fill="none" />
            <line stroke-width="1.0001" y2="243.11" x2="363.67" stroke="#231f20"
                stroke-miterlimit="22.926" y1="237.58" clip-rule="evenodd" x1="361.66"
                fill="none" />
            <line stroke-width="1.0001" y2="228.71" x2="370.59" stroke="#231f20"
                stroke-miterlimit="22.926" y1="240.72" clip-rule="evenodd" x1="372.66"
                fill="none" />
            <line stroke-width="1.0001" y2="228.71" x2="393.35" stroke="#231f20"
                stroke-miterlimit="22.926" y1="240.72" clip-rule="evenodd" x1="391.27"
                fill="none" />
            <line stroke-width="1.0001" y2="243.11" x2="400.27" stroke="#231f20"
                stroke-miterlimit="22.926" y1="237.58" clip-rule="evenodd" x1="402.28"
                fill="none" />
            <line stroke-width="1.0001" y2="236.51" x2="414.79" stroke="#231f20"
                stroke-miterlimit="22.926" y1="247.06" clip-rule="evenodd" x1="408.75"
                fill="none" />
            <line stroke-width="1.0001" y2="252.41" x2="416.36" stroke="#231f20"
                stroke-miterlimit="22.926" y1="247.88" clip-rule="evenodd" x1="420.14"
                fill="none" />
            <line stroke-width="1.0001" y2="251.15" x2="432.27" stroke="#231f20"
                stroke-miterlimit="22.926" y1="259.01" clip-rule="evenodd" x1="422.97"
                fill="none" />
            <line stroke-width="1.0001" y2="266.61" x2="428.31" stroke="#231f20"
                stroke-miterlimit="22.926" y1="263.66" clip-rule="evenodd" x1="433.4" fill="none" />
            <line stroke-width="1.0001" y2="270.95" x2="443.65" stroke="#231f20"
                stroke-miterlimit="22.926" y1="275.1" clip-rule="evenodd" x1="432.27" fill="none" />
            <line stroke-width="1.0001" y2="284.09" x2="434.66" stroke="#231f20"
                stroke-miterlimit="22.926" y1="283.08" clip-rule="evenodd" x1="440.45"
                fill="none" />
            <line stroke-width="1.0001" y2="293.39" x2="447.61" stroke="#231f20"
                stroke-miterlimit="22.926" y1="293.39" clip-rule="evenodd" x1="435.48"
                fill="none" />
            <line stroke-width="1.0001" y2="293.39" x2="435.48" stroke="#231f20"
                stroke-miterlimit="22.926" y1="293.39" clip-rule="evenodd" x1="441.39"
                fill="none" />
            <line stroke-width="1.0001" y2="303.7" x2="440.45" stroke="#231f20"
                stroke-miterlimit="22.926" y1="302.63" clip-rule="evenodd" x1="434.66"
                fill="none" />
            <line stroke-width="1.0001" y2="311.68" x2="432.27" stroke="#231f20"
                stroke-miterlimit="22.926" y1="315.83" clip-rule="evenodd" x1="443.65"
                fill="none" />
            <line stroke-width="1.0001" y2="323.06" x2="433.4" stroke="#231f20"
                stroke-miterlimit="22.926" y1="320.1" clip-rule="evenodd" x1="428.31" fill="none" />
            <line stroke-width="1.0001" y2="327.77" x2="422.97" stroke="#231f20"
                stroke-miterlimit="22.926" y1="335.56" clip-rule="evenodd" x1="432.27"
                fill="none" />
            <line stroke-width="1.0001" y2="338.83" x2="420.14" stroke="#231f20"
                stroke-miterlimit="22.926" y1="334.37" clip-rule="evenodd" x1="416.36"
                fill="none" />
            <line stroke-width="1.0001" y2="350.21" x2="414.79" stroke="#231f20"
                stroke-miterlimit="22.926" y1="339.71" clip-rule="evenodd" x1="408.75"
                fill="none" />
            <line stroke-width="1.0001" y2="343.61" x2="400.27" stroke="#231f20"
                stroke-miterlimit="22.926" y1="349.14" clip-rule="evenodd" x1="402.28"
                fill="none" />
            <line stroke-width="1.0001" y2="358" x2="393.35" stroke="#231f20"
                stroke-miterlimit="22.926" y1="346.06" clip-rule="evenodd" x1="391.27"
                fill="none" />
            <line stroke-width="1.0001" y2="346.88" x2="381.97" stroke="#231f20"
                stroke-miterlimit="22.926" y1="352.73" clip-rule="evenodd" x1="381.97"
                fill="none" />
            <line stroke-width="1.0001" y2="233.99" x2="381.97" stroke="#231f20"
                stroke-miterlimit="22.926" y1="239.84" clip-rule="evenodd" x1="381.97"
                fill="none" />
            <line stroke-width="1.0001" y2="358" x2="370.59" stroke="#231f20"
                stroke-miterlimit="22.926" y1="346.06" clip-rule="evenodd" x1="372.66"
                fill="none" />
            <line stroke-width="1.0001" y2="343.61" x2="363.67" stroke="#231f20"
                stroke-miterlimit="22.926" y1="349.14" clip-rule="evenodd" x1="361.66"
                fill="none" />
            <line stroke-width="1.0001" y2="350.21" x2="349.15" stroke="#231f20"
                stroke-miterlimit="22.926" y1="339.71" clip-rule="evenodd" x1="355.24"
                fill="none" />
            <line stroke-width="1.0001" y2="334.37" x2="347.58" stroke="#231f20"
                stroke-miterlimit="22.926" y1="338.83" clip-rule="evenodd" x1="343.8" fill="none" />
            <text stroke-width="0.21600001" transform="matrix(1.0004,0,0,1,376.5391,256.9697)"
                stroke="#231f20" stroke-miterlimit="5" font-size="15.96490002px"
                font-family="Verdana" fill="#231f20">N
            </text>
            <text stroke-width="0.21600001" transform="matrix(1.0004,0,0,1,332.7266,299.3477)"
                stroke="#231f20" stroke-miterlimit="5" font-size="15.96490002px"
                font-family="Verdana" fill="#231f20">W
            </text>
            <text stroke-width="0.21600001" transform="matrix(1.0004,0,0,1,376.5469,343.8667)"
                stroke="#231f20" stroke-miterlimit="5" font-size="15.96490002px"
                font-family="Verdana" fill="#231f20">S
            </text>
            <text stroke-width="0.21600001" transform="matrix(1.0004,0,0,1,421.335,299.7529)"
                stroke="#231f20" stroke-miterlimit="5" font-size="15.96490002px"
                font-family="Verdana" fill="#231f20">E
            </text>
            <text transform="matrix(1.0004,0,0,1,378.8232,232.9697)" font-size="10.63869953px"
                font-family="Verdana" fill="#231f20">0
            </text>
        </g>
    </g>
</svg>
