<?xml version="1.0" encoding="utf-8"?>
<!-- Generator: Adobe Illustrator 16.0.4, SVG Export Plug-In . SVG Version: 6.00 Build 0)  -->
<!DOCTYPE svg PUBLIC "-//W3C//DTD SVG 1.1 Basic//EN" "http://www.w3.org/Graphics/SVG/1.1/DTD/svg11-basic.dtd">
<svg version="1.1" baseProfile="basic" id="Layer_1"
	 xmlns="http://www.w3.org/2000/svg" xmlns:xlink="http://www.w3.org/1999/xlink" x="0px" y="0px" width="128px" height="128px"
	 viewBox="0 0 128 128" xml:space="preserve">
<g id="compass">
	<g id="compass_x5F_base">
		
			<polygon fill-rule="evenodd" clip-rule="evenodd" fill="#404041" stroke="#231F20" stroke-width="0.216" stroke-miterlimit="22.9256" points="
			21.962,106.873 25.711,110.23 29.704,113.247 33.987,115.971 38.417,118.26 43.043,120.205 47.812,121.763 52.729,122.93 
			57.696,123.66 62.71,124 67.724,123.854 72.737,123.368 77.704,122.395 82.523,121.032 87.245,119.28 91.772,117.189 
			96.153,114.659 100.292,111.787 104.138,108.575 107.74,105.071 111.001,101.275 113.971,97.188 116.601,92.905 118.839,88.379 
			120.689,83.709 122.101,78.891 123.173,73.976 123.805,69.013 124,64 123.805,58.989 123.173,53.976 122.101,49.062 
			120.689,44.244 118.839,39.572 116.601,35.094 113.971,30.764 111.001,26.726 107.74,22.93 104.138,19.377 100.292,16.165 
			96.153,13.343 91.772,10.813 87.245,8.672 82.523,6.92 77.704,5.557 72.737,4.632 67.724,4.098 62.71,4 57.696,4.292 
			52.729,5.022 47.812,6.19 43.043,7.747 38.417,9.693 33.987,12.029 29.704,14.706 25.711,17.771 21.962,21.13 18.554,24.779 
			15.39,28.721 12.616,32.905 10.23,37.285 8.186,41.908 6.531,46.628 5.265,51.494 4.438,56.458 4,61.47 4,66.482 4.438,71.495 
			5.265,76.457 6.531,81.324 8.186,86.092 10.23,90.668 12.616,95.047 15.39,99.28 18.554,103.174 		"/>
		
			<polygon fill-rule="evenodd" clip-rule="evenodd" fill="#E6E7E8" stroke="#231F20" stroke-width="0.216" stroke-miterlimit="22.9256" points="
			23.422,105.363 27.075,108.623 30.921,111.544 35.01,114.122 39.293,116.361 43.772,118.26 48.396,119.767 53.119,120.887 
			57.939,121.567 62.758,121.86 67.626,121.763 72.446,121.275 77.217,120.352 81.889,119.085 86.417,117.382 90.799,115.29 
			95.034,112.858 99.024,110.133 102.726,107.018 106.23,103.611 109.396,99.962 112.219,96.021 114.752,91.884 116.892,87.554 
			118.692,83.027 120.105,78.403 121.078,73.636 121.713,68.819 121.906,64 121.713,59.135 121.078,54.317 120.105,49.596 
			118.692,44.925 116.892,40.448 114.752,36.068 112.219,31.933 109.396,28.039 106.23,24.341 102.726,20.935 99.024,17.869 
			95.034,15.095 90.799,12.662 86.417,10.618 81.889,8.915 77.217,7.601 72.446,6.676 67.626,6.19 62.758,6.093 57.939,6.385 
			53.119,7.115 48.396,8.186 43.772,9.693 39.293,11.591 35.01,13.83 30.921,16.458 27.075,19.377 23.422,22.589 20.114,26.142 
			17.093,29.937 14.417,33.976 12.082,38.258 10.133,42.687 8.526,47.261 7.31,51.933 6.483,56.75 6.093,61.567 6.093,66.433 
			6.483,71.252 7.31,76.02 8.526,80.74 10.133,85.314 12.082,89.743 14.417,93.977 17.093,98.016 20.114,101.811 		"/>
		<g id="pointers">
			
				<line fill-rule="evenodd" clip-rule="evenodd" fill="none" stroke="#231F20" stroke-width="1.0001" stroke-miterlimit="22.9256" x1="25.03" y1="96.651" x2="32.236" y2="90.618"/>
			
				<line fill-rule="evenodd" clip-rule="evenodd" fill="none" stroke="#231F20" stroke-width="1.0001" stroke-miterlimit="22.9256" x1="28.096" y1="84.683" x2="24.154" y2="86.97"/>
			
				<line fill-rule="evenodd" clip-rule="evenodd" fill="none" stroke="#231F20" stroke-width="1.0001" stroke-miterlimit="22.9256" x1="25.03" y1="78.16" x2="16.218" y2="81.373"/>
			
				<line fill-rule="evenodd" clip-rule="evenodd" fill="none" stroke="#231F20" stroke-width="1.0001" stroke-miterlimit="22.9256" x1="18.701" y1="71.981" x2="23.179" y2="71.154"/>
			
				<line fill-rule="evenodd" clip-rule="evenodd" fill="none" stroke="#231F20" stroke-width="1.0001" stroke-miterlimit="22.9256" x1="22.547" y1="64" x2="18.019" y2="64"/>
			
				<line fill-rule="evenodd" clip-rule="evenodd" fill="none" stroke="#231F20" stroke-width="1.0001" stroke-miterlimit="22.9256" x1="22.547" y1="64" x2="13.151" y2="64"/>
			
				<line fill-rule="evenodd" clip-rule="evenodd" fill="none" stroke="#231F20" stroke-width="1.0001" stroke-miterlimit="22.9256" x1="18.701" y1="56.02" x2="23.179" y2="56.798"/>
			
				<line fill-rule="evenodd" clip-rule="evenodd" fill="none" stroke="#231F20" stroke-width="1.0001" stroke-miterlimit="22.9256" x1="25.03" y1="49.839" x2="16.218" y2="46.628"/>
			
				<line fill-rule="evenodd" clip-rule="evenodd" fill="none" stroke="#231F20" stroke-width="1.0001" stroke-miterlimit="22.9256" x1="24.154" y1="40.982" x2="28.096" y2="43.271"/>
			
				<line fill-rule="evenodd" clip-rule="evenodd" fill="none" stroke="#231F20" stroke-width="1.0001" stroke-miterlimit="22.9256" x1="32.236" y1="37.382" x2="25.03" y2="31.299"/>
			
				<line fill-rule="evenodd" clip-rule="evenodd" fill="none" stroke="#231F20" stroke-width="1.0001" stroke-miterlimit="22.9256" x1="34.426" y1="28.77" x2="37.346" y2="32.273"/>
			
				<line fill-rule="evenodd" clip-rule="evenodd" fill="none" stroke="#231F20" stroke-width="1.0001" stroke-miterlimit="22.9256" x1="43.286" y1="28.136" x2="38.562" y2="19.961"/>
			
				<line fill-rule="evenodd" clip-rule="evenodd" fill="none" stroke="#231F20" stroke-width="1.0001" stroke-miterlimit="22.9256" x1="48.251" y1="20.789" x2="49.808" y2="25.072"/>
			
				<line fill-rule="evenodd" clip-rule="evenodd" fill="none" stroke="#231F20" stroke-width="1.0001" stroke-miterlimit="22.9256" x1="56.771" y1="23.221" x2="55.165" y2="13.928"/>
			
				<line fill-rule="evenodd" clip-rule="evenodd" fill="none" stroke="#231F20" stroke-width="1.0001" stroke-miterlimit="22.9256" x1="71.181" y1="23.221" x2="72.787" y2="13.928"/>
			
				<line fill-rule="evenodd" clip-rule="evenodd" fill="none" stroke="#231F20" stroke-width="1.0001" stroke-miterlimit="22.9256" x1="79.698" y1="20.789" x2="78.14" y2="25.072"/>
			
				<line fill-rule="evenodd" clip-rule="evenodd" fill="none" stroke="#231F20" stroke-width="1.0001" stroke-miterlimit="22.9256" x1="84.714" y1="28.136" x2="89.387" y2="19.961"/>
			
				<line fill-rule="evenodd" clip-rule="evenodd" fill="none" stroke="#231F20" stroke-width="1.0001" stroke-miterlimit="22.9256" x1="93.525" y1="28.77" x2="90.604" y2="32.273"/>
			
				<line fill-rule="evenodd" clip-rule="evenodd" fill="none" stroke="#231F20" stroke-width="1.0001" stroke-miterlimit="22.9256" x1="95.716" y1="37.382" x2="102.921" y2="31.299"/>
			
				<line fill-rule="evenodd" clip-rule="evenodd" fill="none" stroke="#231F20" stroke-width="1.0001" stroke-miterlimit="22.9256" x1="103.797" y1="40.982" x2="99.853" y2="43.271"/>
			
				<line fill-rule="evenodd" clip-rule="evenodd" fill="none" stroke="#231F20" stroke-width="1.0001" stroke-miterlimit="22.9256" x1="102.921" y1="49.839" x2="111.731" y2="46.628"/>
			
				<line fill-rule="evenodd" clip-rule="evenodd" fill="none" stroke="#231F20" stroke-width="1.0001" stroke-miterlimit="22.9256" x1="109.25" y1="56.02" x2="104.771" y2="56.798"/>
			
				<line fill-rule="evenodd" clip-rule="evenodd" fill="none" stroke="#231F20" stroke-width="1.0001" stroke-miterlimit="22.9256" x1="105.404" y1="64" x2="114.799" y2="64"/>
			
				<line fill-rule="evenodd" clip-rule="evenodd" fill="none" stroke="#231F20" stroke-width="1.0001" stroke-miterlimit="22.9256" x1="109.98" y1="64" x2="105.404" y2="64"/>
			
				<line fill-rule="evenodd" clip-rule="evenodd" fill="none" stroke="#231F20" stroke-width="1.0001" stroke-miterlimit="22.9256" x1="104.771" y1="71.154" x2="109.25" y2="71.981"/>
			
				<line fill-rule="evenodd" clip-rule="evenodd" fill="none" stroke="#231F20" stroke-width="1.0001" stroke-miterlimit="22.9256" x1="111.731" y1="81.373" x2="102.921" y2="78.16"/>
			
				<line fill-rule="evenodd" clip-rule="evenodd" fill="none" stroke="#231F20" stroke-width="1.0001" stroke-miterlimit="22.9256" x1="99.853" y1="84.683" x2="103.797" y2="86.97"/>
			
				<line fill-rule="evenodd" clip-rule="evenodd" fill="none" stroke="#231F20" stroke-width="1.0001" stroke-miterlimit="22.9256" x1="102.921" y1="96.651" x2="95.716" y2="90.618"/>
			
				<line fill-rule="evenodd" clip-rule="evenodd" fill="none" stroke="#231F20" stroke-width="1.0001" stroke-miterlimit="22.9256" x1="90.604" y1="95.729" x2="93.525" y2="99.184"/>
			
				<line fill-rule="evenodd" clip-rule="evenodd" fill="none" stroke="#231F20" stroke-width="1.0001" stroke-miterlimit="22.9256" x1="84.714" y1="99.864" x2="89.387" y2="107.991"/>
			
				<line fill-rule="evenodd" clip-rule="evenodd" fill="none" stroke="#231F20" stroke-width="1.0001" stroke-miterlimit="22.9256" x1="79.698" y1="107.163" x2="78.14" y2="102.881"/>
			
				<line fill-rule="evenodd" clip-rule="evenodd" fill="none" stroke="#231F20" stroke-width="1.0001" stroke-miterlimit="22.9256" x1="71.181" y1="104.778" x2="72.787" y2="114.023"/>
			
				<line fill-rule="evenodd" clip-rule="evenodd" fill="none" stroke="#231F20" stroke-width="1.0001" stroke-miterlimit="22.9256" x1="63.975" y1="109.938" x2="63.975" y2="105.413"/>
			
				<line fill-rule="evenodd" clip-rule="evenodd" fill="none" stroke="#231F20" stroke-width="1.0001" stroke-miterlimit="22.9256" x1="63.975" y1="22.54" x2="63.975" y2="18.015"/>
			
				<line fill-rule="evenodd" clip-rule="evenodd" fill="none" stroke="#231F20" stroke-width="1.0001" stroke-miterlimit="22.9256" x1="56.771" y1="104.778" x2="55.165" y2="114.023"/>
			
				<line fill-rule="evenodd" clip-rule="evenodd" fill="none" stroke="#231F20" stroke-width="1.0001" stroke-miterlimit="22.9256" x1="48.251" y1="107.163" x2="49.808" y2="102.881"/>
			
				<line fill-rule="evenodd" clip-rule="evenodd" fill="none" stroke="#231F20" stroke-width="1.0001" stroke-miterlimit="22.9256" x1="43.286" y1="99.864" x2="38.562" y2="107.991"/>
			
				<line fill-rule="evenodd" clip-rule="evenodd" fill="none" stroke="#231F20" stroke-width="1.0001" stroke-miterlimit="22.9256" x1="34.426" y1="99.184" x2="37.346" y2="95.729"/>
		</g>
		
			<text transform="matrix(1.0004 0 0 1 59.8027 35.8823)" fill="#231F20" stroke="#231F20" stroke-width="0.216" stroke-miterlimit="5" font-family="'Verdana'" font-size="12.3599">N</text>
		
			<text transform="matrix(1.0004 0 0 1 25.8843 69.3828)" fill="#231F20" stroke="#231F20" stroke-width="0.216" stroke-miterlimit="5" font-family="'Verdana'" font-size="12.3599">W</text>
		
			<text transform="matrix(1.0004 0 0 1 60.5845 103.1602)" fill="#231F20" stroke="#231F20" stroke-width="0.216" stroke-miterlimit="5" font-family="'Verdana'" font-size="12.3599">S</text>
		
			<text transform="matrix(1.0004 0 0 1 94.9023 68.8965)" fill="#231F20" stroke="#231F20" stroke-width="0.216" stroke-miterlimit="5" font-family="'Verdana'" font-size="12.3599">E</text>
		<text transform="matrix(1.0004 0 0 1 61.438 17.3018)" fill="#231F20" font-family="'Verdana'" font-size="8.2395">0</text>
	</g>
	<g id="compass_x5F_arrow">
		
			<polygon fill-rule="evenodd" clip-rule="evenodd" fill="#EC1C24" stroke="#231F20" stroke-width="0.216" stroke-miterlimit="22.9256" points="
			62.351,57.917 103.968,53.265 65.6,70.037 		"/>
		
			<polygon fill-rule="evenodd" clip-rule="evenodd" fill="#0094D9" stroke="#231F20" stroke-width="0.216" stroke-miterlimit="22.9256" points="
			62.351,57.917 23.982,74.688 65.6,70.037 		"/>
		
			<radialGradient id="SVGID_1_" cx="64.4365" cy="65.0225" r="10.944" gradientTransform="matrix(0.6013 0 0 0.6011 25.2046 24.8936)" gradientUnits="userSpaceOnUse">
			<stop  offset="0" style="stop-color:#FFFFFF"/>
			<stop  offset="1" style="stop-color:#231F20"/>
		</radialGradient>
		
			<polygon fill-rule="evenodd" clip-rule="evenodd" fill="url(#SVGID_1_)" stroke="#231F20" stroke-width="0.216" stroke-miterlimit="22.9256" points="
			59.945,61.629 59.569,62.486 59.347,63.352 59.292,64.273 59.485,65.179 59.77,66.06 60.28,66.83 60.903,67.468 61.659,68.023 
			62.467,68.411 63.368,68.572 64.29,68.628 65.161,68.494 66.03,68.162 66.801,67.652 67.451,67.075 68.006,66.322 68.382,65.467 
			68.603,64.6 68.611,63.691 68.465,62.773 68.134,61.905 67.672,61.122 67.046,60.484 66.293,59.93 65.449,59.602 64.582,59.38 
			63.66,59.324 62.743,59.471 61.92,59.792 61.151,60.3 60.464,60.937 		"/>
	</g>
</g>
</svg>
