<?xml version="1.0" encoding="UTF-8" standalone="no"?><!-- Generator: Adobe Illustrator 16.0.4, SVG Export Plug-In . SVG Version: 6.00 Build 0)  -->
<svg xmlns:rdf="http://www.w3.org/1999/02/22-rdf-syntax-ns#" xmlns="http://www.w3.org/2000/svg" xml:space="preserve" height="800px" viewBox="0 0 480 800" width="480px" version="1.1" y="0px" x="0px" xmlns:cc="http://creativecommons.org/ns#" xmlns:dc="http://purl.org/dc/elements/1.1/"><metadata><rdf:RDF><cc:Work rdf:about=""><dc:format>image/svg+xml</dc:format><dc:type rdf:resource="http://purl.org/dc/dcmitype/StillImage"/><dc:title/></cc:Work></rdf:RDF></metadata><line y2="755.83" x1="382" fill-rule="evenodd" x2="382" stroke="#808184" stroke-miterlimit="22.926" y1="27.493" clip-rule="evenodd" stroke-width="3" fill="none"/><polyline fill-rule="evenodd" stroke="#EC1C24" points="382,762.65,166,762.65,166,646.65" stroke-miterlimit="22.9256" clip-rule="evenodd" stroke-width="3" fill="none"/><polygon fill-rule="evenodd" stroke="#231F20" points="386.82,769.13,387.73,768.16,388.53,767.14,389.04,765.95,389.39,764.7,389.5,763.39,389.39,762.09,389.04,760.84,388.53,759.64,387.73,758.56,386.82,757.65,385.74,756.91,384.59,756.35,383.28,756,381.97,755.89,380.72,756,379.4,756.35,378.26,756.91,377.18,757.65,376.27,758.56,375.47,759.64,374.96,760.84,374.61,762.09,374.5,763.39,374.61,764.7,374.96,765.95,375.47,767.14,376.27,768.16,377.18,769.13,378.26,769.87,379.4,770.44,380.72,770.78,381.97,770.89,383.28,770.78,384.59,770.44,385.74,769.87" stroke-miterlimit="22.9256" clip-rule="evenodd" stroke-width="0.216" fill="#EC1C24"/><polyline fill-rule="evenodd" stroke="#EC1C24" points="166,575.5,166,27.5,382,27.5" stroke-miterlimit="22.9256" clip-rule="evenodd" stroke-width="3" fill="none"/><polygon fill-rule="evenodd" stroke="#231F20" points="386.82,33.239,387.73,32.274,388.53,31.25,389.04,30.058,389.39,28.809,389.5,27.499,389.39,26.195,389.04,24.944,388.53,23.75,387.73,22.671,386.82,21.763,385.74,21.023,384.59,20.454,383.28,20.112,381.97,20,380.72,20.112,379.4,20.454,378.26,21.023,377.18,21.763,376.27,22.671,375.47,23.75,374.96,24.944,374.61,26.195,374.5,27.499,374.61,28.809,374.96,30.058,375.47,31.25,376.27,32.274,377.18,33.239,378.26,33.978,379.4,34.547,380.72,34.887,381.97,35,383.28,34.887,384.59,34.547,385.74,33.978" stroke-miterlimit="22.9256" clip-rule="evenodd" stroke-width="0.216" fill="#EC1C24"/><polygon fill-rule="evenodd" stroke="#231F20" points="28.76,561.39,27.408,561.5,26.057,561.83,24.762,562.33,23.587,563,22.527,563.84,21.647,564.83,20.942,565.95,20.412,567.17,20.059,568.44,20,569.72,20,657.06,20.059,658.34,20.412,659.61,20.942,660.84,21.647,661.95,22.527,662.95,23.587,663.78,24.762,664.45,26.057,664.94,27.408,665.28,28.76,665.39,143.24,665.39,144.59,665.28,145.94,664.94,147.24,664.45,148.41,663.78,149.41,662.95,150.35,661.95,151.06,660.84,151.59,659.61,151.88,658.34,152,657.06,152,569.72,151.88,568.44,151.59,567.17,151.06,565.95,150.35,564.83,149.41,563.84,148.41,563,147.24,562.33,145.94,561.83,144.59,561.5,143.24,561.39" stroke-miterlimit="22.9256" clip-rule="evenodd" stroke-width="0.216" fill="#A6A8AB"/><rect fill-rule="evenodd" height="76" width="28" stroke="#231F20" clip-rule="evenodd" stroke-miterlimit="22.926" y="575.39" x="152" stroke-width="0.216" fill="#A6A8AB"/><polygon fill-rule="evenodd" stroke="#231F20" points="166,627.52,164.8,627.62,163.59,627.92,162.5,628.43,161.5,629.13,160.67,629.94,159.94,630.9,159.41,631.96,159.1,633.12,159,634.29,159.1,635.45,159.41,636.61,159.94,637.67,160.67,638.63,161.5,639.44,162.5,640.14,163.59,640.65,164.8,640.96,166,641.06,167.2,640.96,168.4,640.65,169.5,640.14,170.5,639.44,171.33,638.63,172.06,637.67,172.58,636.61,172.9,635.45,173,634.29,172.9,633.12,172.58,631.96,172.06,630.9,171.33,629.94,170.5,629.13,169.5,628.43,168.4,627.92,167.2,627.62" stroke-miterlimit="22.9256" clip-rule="evenodd" stroke-width="0.216" fill="#EC1C24"/><rect fill-rule="evenodd" height="2.082" width="10.774" clip-rule="evenodd" y="633.46" x="160.61" fill="#FFF"/><polygon fill-rule="evenodd" stroke="#231F20" points="166,599.26,167.2,599.16,168.4,598.86,169.5,598.36,170.5,597.65,171.33,596.84,172.06,595.88,172.58,594.82,172.9,593.66,173,592.5,172.9,591.34,172.58,590.17,172.06,589.11,171.33,588.15,170.5,587.34,169.5,586.64,168.4,586.13,167.2,585.83,166,585.73,164.8,585.83,163.59,586.13,162.5,586.64,161.5,587.34,160.67,588.15,159.94,589.11,159.41,590.17,159.1,591.34,159,592.5,159.1,593.66,159.41,594.82,159.94,595.88,160.67,596.84,161.5,597.65,162.5,598.36,163.59,598.86,164.8,599.16" stroke-miterlimit="22.9256" clip-rule="evenodd" stroke-width="0.216" fill="#EC1C24"/><rect fill-rule="evenodd" height="10.41" width="2.154" clip-rule="evenodd" y="587.35" x="164.92" fill="#FFF"/><rect fill-rule="evenodd" height="2.084" width="10.774" clip-rule="evenodd" y="591.51" x="160.61" fill="#FFF"/></svg>
