<?xml version="1.0" encoding="UTF-8" standalone="no"?>
<!-- Generator: Adobe Illustrator 16.0.0, SVG Export Plug-In . SVG Version: 6.00 Build 0)  -->
<svg id="Layer_1" xmlns:rdf="http://www.w3.org/1999/02/22-rdf-syntax-ns#" xmlns="http://www.w3.org/2000/svg" enable-background="new 0 0 480 800" xml:space="preserve" height="800px" viewBox="0 0 480 800" width="480px" version="1.1" y="0px" x="0px" xmlns:cc="http://creativecommons.org/ns#" xmlns:dc="http://purl.org/dc/elements/1.1/"><metadata id="metadata4103"><rdf:RDF><cc:Work rdf:about=""><dc:format>image/svg+xml</dc:format><dc:type rdf:resource="http://purl.org/dc/dcmitype/StillImage"/><dc:title/></cc:Work></rdf:RDF></metadata><g id="voltage_1_" clip-rule="evenodd" fill-rule="evenodd"><polygon id="polygon3919" stroke="#231F20" points="24.593,575.33,23.267,575.45,21.94,575.79,20.67,576.3,19.518,576.98,18.479,577.84,17.615,578.86,16.923,580.01,16.404,581.26,16.057,582.57,16,583.88,16,673.45,16.057,674.76,16.404,676.07,16.923,677.33,17.615,678.47,18.479,679.49,19.518,680.35,20.67,681.03,21.94,681.54,23.267,681.89,24.593,682,136.88,682,138.2,681.89,139.53,681.54,140.8,681.03,141.95,680.35,142.94,679.49,143.86,678.47,144.55,677.33,145.07,676.07,145.36,674.76,145.47,673.45,145.47,583.88,145.36,582.57,145.07,581.26,144.55,580.01,143.86,578.86,142.94,577.84,141.95,576.98,140.8,576.3,139.53,575.79,138.2,575.45,136.88,575.33" stroke-miterlimit="22.9256" stroke-width="0.216" fill="#A6A8AB"/><g id="cable_x5F_connection"><rect id="rect3922" height="82.285" width="28.941" stroke="#231F20" stroke-miterlimit="22.926" y="587.68" x="147.06" stroke-width="0.216" fill="#A6A8AB"/><g id="minus"><polygon id="polygon3925" stroke="#231F20" points="161.53,644.12,160.29,644.23,159.04,644.56,157.91,645.1,156.88,645.87,156.02,646.74,155.26,647.78,154.72,648.93,154.4,650.19,154.29,651.45,154.4,652.7,154.72,653.96,155.26,655.11,156.02,656.15,156.88,657.02,157.91,657.79,159.04,658.34,160.29,658.67,161.53,658.78,162.77,658.67,164.02,658.34,165.15,657.79,166.18,657.02,167.04,656.15,167.8,655.11,168.34,653.96,168.66,652.7,168.77,651.45,168.66,650.19,168.34,648.93,167.8,647.78,167.04,646.74,166.18,645.87,165.15,645.1,164.02,644.56,162.77,644.23" stroke-miterlimit="22.9256" stroke-width="0.216" fill="#EC1C24"/><rect id="rect3927" height="2.254" width="11.138" y="650.55" x="155.96" fill="#FFF"/></g><g id="plus_1_"><polygon id="polygon3930" stroke="#231F20" points="161.53,613.53,162.77,613.42,164.02,613.09,165.15,612.54,166.18,611.78,167.04,610.9,167.8,609.87,168.34,608.72,168.66,607.46,168.77,606.2,168.66,604.94,168.34,603.69,167.8,602.54,167.04,601.5,166.18,600.62,165.15,599.86,164.02,599.31,162.77,598.98,161.53,598.87,160.29,598.98,159.04,599.31,157.91,599.86,156.88,600.62,156.02,601.5,155.26,602.54,154.72,603.69,154.4,604.94,154.29,606.2,154.4,607.46,154.72,608.72,155.26,609.87,156.02,610.9,156.88,611.78,157.91,612.54,159.04,613.09,160.29,613.42" stroke-miterlimit="22.9256" stroke-width="0.216" fill="#EC1C24"/><g id="plus" fill="#FFF"><rect id="rect3933" height="11.273" width="2.228" y="600.63" x="160.42"/><rect id="rect3935" height="2.255" width="11.137" y="605.14" x="155.96"/></g></g></g><g id="voltage_x5F_btn" stroke="#231F20" stroke-miterlimit="22.9256" stroke-width="0.216"><polygon id="polygon3938" points="107.36,604.04,105.22,602.09,102.95,600.31,100.52,598.7,97.964,597.27,95.296,596.06,92.569,595.08,89.785,594.28,86.885,593.71,83.984,593.36,81.084,593.25,78.185,593.36,75.283,593.71,72.384,594.28,69.599,595.08,66.873,596.06,64.204,597.27,61.652,598.7,59.216,600.31,56.953,602.09,54.807,604.04,52.835,606.16,50.979,608.46,49.354,610.81,47.962,613.33,46.745,615.98,45.699,618.67,44.946,621.48,44.366,624.3,44.017,627.16,43.901,630.03,44.017,632.96,44.366,635.83,44.946,638.64,45.699,641.46,46.745,644.15,47.962,646.73,49.354,649.26,50.979,651.67,52.835,653.96,54.807,656.09,56.953,658.04,59.216,659.82,61.652,661.43,64.204,662.86,66.873,664.06,69.599,665.04,72.384,665.84,75.283,666.42,78.185,666.7,81.084,666.82,83.984,666.7,86.885,666.42,89.785,665.84,92.569,665.04,95.296,664.06,97.964,662.86,100.52,661.43,102.95,659.82,105.22,658.04,107.36,656.09,109.33,653.96,111.19,651.67,112.81,649.26,114.21,646.73,115.42,644.15,116.47,641.46,117.22,638.64,117.8,635.83,118.15,632.96,118.27,630.03,118.15,627.16,117.8,624.3,117.22,621.48,116.47,618.67,115.42,615.98,114.21,613.33,112.81,610.81,111.19,608.46,109.33,606.16" fill="#E6E7E8"/><polygon id="polygon3940" points="93.846,636.86,105.39,654.14,87.929,642.66" fill="#EC1C24"/></g></g><g id="cabels" stroke-miterlimit="22.9256" clip-rule="evenodd" fill-rule="evenodd"><line id="line3943" y2="768.68" x1="364.49" x2="364.49" stroke="#808184" y1="37.554" stroke-width="4" fill="none"/><polygon id="polygon3945" stroke="#231F20" points="369.21,768.09,368.13,767.13,366.99,766.4,365.68,766.03,364.36,765.88,363.11,766.03,361.8,766.4,360.66,767.13,359.57,768.09,358.66,769.34,357.86,770.67,357.35,772.21,357,773.83,356.89,775.53,357,777.22,357.35,778.84,357.86,780.39,358.66,781.79,359.57,782.97,360.66,783.93,361.8,784.66,363.11,785.1,364.36,785.25,365.68,785.1,366.99,784.66,368.13,783.93,369.21,782.97,370.12,781.79,370.92,780.39,371.44,778.84,371.78,777.22,371.89,775.53,371.78,773.83,371.44,772.21,370.92,770.67,370.12,769.34" stroke-width="0.216" fill="#EC1C24"/><polygon id="polygon3947" stroke="#231F20" points="368.99,40.24,369.9,39.273,370.7,38.249,371.22,37.058,371.56,35.807,371.67,34.5,371.56,33.194,371.22,31.944,370.7,30.75,369.9,29.671,368.99,28.762,367.91,28.023,366.77,27.455,365.46,27.113,364.14,27,362.89,27.113,361.58,27.455,360.44,28.023,359.35,28.762,358.44,29.671,357.64,30.75,357.13,31.944,356.78,33.194,356.67,34.5,356.78,35.807,357.13,37.058,357.64,38.249,358.44,39.273,359.35,40.24,360.44,40.979,361.58,41.546,362.89,41.887,364.14,42,365.46,41.887,366.77,41.546,367.91,40.979" stroke-width="0.216" fill="#EC1C24"/><polyline id="polyline3949" stroke="#EC1C24" points="360.85,775.53,161.53,775.53,161.53,659.47" stroke-width="3" fill="none"/><polyline id="polyline3951" stroke="#EC1C24" points="161.53,586.03,161.53,37.554,365.71,37.554" stroke-width="3" fill="none"/></g><g id="compass"><g id="compass_x5F_base"><polygon id="polygon3955" fill-rule="evenodd" stroke="#231F20" points="294.31,378.64,300.55,384.14,307.19,389.08,314.31,393.55,321.68,397.3,329.37,400.49,337.3,403.04,345.48,404.96,353.74,406.15,362.08,406.71,370.41,406.47,378.75,405.68,387.01,404.08,395.02,401.85,402.88,398.98,410.41,395.55,417.69,391.4,424.57,386.69,430.97,381.43,436.96,375.68,442.38,369.46,447.32,362.76,451.7,355.74,455.42,348.32,458.49,340.66,460.84,332.76,462.62,324.71,463.68,316.57,464,308.36,463.68,300.14,462.62,291.92,460.84,283.87,458.49,275.97,455.42,268.31,451.7,260.97,447.32,253.87,442.38,247.25,436.96,241.03,430.97,235.21,424.57,229.94,417.69,225.32,410.41,221.17,402.88,217.66,395.02,214.79,387.01,212.55,378.75,211.04,370.41,210.16,362.08,210,353.74,210.48,345.48,211.68,337.3,213.59,329.37,216.14,321.68,219.33,314.31,223.16,307.19,227.55,300.55,232.58,294.31,238.08,288.65,244.06,283.38,250.52,278.77,257.38,274.8,264.56,271.4,272.14,268.65,279.88,266.55,287.86,265.17,295.99,264.44,304.21,264.44,312.42,265.17,320.64,266.55,328.78,268.65,336.76,271.4,344.57,274.8,352.07,278.77,359.25,283.38,366.19,288.65,372.57" stroke-miterlimit="22.9256" clip-rule="evenodd" stroke-width="0.216" fill="#404041"/><polygon id="polygon3957" fill-rule="evenodd" stroke="#231F20" points="296.74,376.16,302.82,381.5,309.21,386.29,316.01,390.52,323.14,394.19,330.58,397.3,338.27,399.77,346.13,401.61,354.14,402.72,362.16,403.2,370.25,403.04,378.27,402.24,386.2,400.73,393.97,398.65,401.5,395.86,408.79,392.43,415.83,388.45,422.47,383.98,428.62,378.87,434.45,373.29,439.71,367.31,444.41,360.84,448.62,354.06,452.18,346.97,455.17,339.55,457.52,331.97,459.14,324.15,460.2,316.26,460.52,308.36,460.2,300.38,459.14,292.48,457.52,284.74,455.17,277.09,452.18,269.75,448.62,262.57,444.41,255.79,439.71,249.41,434.45,243.34,428.62,237.76,422.47,232.73,415.83,228.19,408.79,224.2,401.5,220.85,393.97,218.06,386.2,215.9,378.27,214.39,370.25,213.59,362.16,213.43,354.14,213.91,346.13,215.11,338.27,216.86,330.58,219.33,323.14,222.44,316.01,226.11,309.21,230.42,302.82,235.21,296.74,240.47,291.24,246.3,286.22,252.52,281.77,259.14,277.88,266.16,274.64,273.42,271.97,280.92,269.95,288.57,268.57,296.47,267.92,304.37,267.92,312.34,268.57,320.24,269.95,328.06,271.97,335.8,274.64,343.3,277.88,350.56,281.77,357.49,286.22,364.12,291.24,370.34" stroke-miterlimit="22.9256" clip-rule="evenodd" stroke-width="0.216" fill="#E6E7E8"/><g id="pointers" fill-rule="evenodd" stroke="#231F20" stroke-miterlimit="22.9256" clip-rule="evenodd" stroke-width="1.0001" fill="none"><line id="line3960" y2="351.99" x1="299.42" x2="311.4" y1="361.88"/><line id="line3962" y2="346.01" x1="304.51" x2="297.96" y1="342.26"/><line id="line3964" y2="336.83" x1="299.42" x2="284.76" y1="331.57"/><line id="line3966" y2="320.08" x1="288.89" x2="296.34" y1="321.44"/><line id="line3968" y2="308.36" x1="295.29" x2="287.76" y1="308.36"/><line id="line3970" y2="308.36" x1="295.29" x2="279.66" y1="308.36"/><line id="line3972" y2="296.55" x1="288.89" x2="296.34" y1="295.27"/><line id="line3974" y2="279.88" x1="299.42" x2="284.76" y1="285.14"/><line id="line3976" y2="274.38" x1="297.96" x2="304.51" y1="270.62"/><line id="line3978" y2="254.75" x1="311.4" x2="299.42" y1="264.72"/><line id="line3980" y2="256.35" x1="315.04" x2="319.9" y1="250.6"/><line id="line3982" y2="236.16" x1="329.78" x2="321.92" y1="249.56"/><line id="line3984" y2="244.54" x1="338.03" x2="340.62" y1="237.52"/><line id="line3986" y2="226.27" x1="352.2" x2="349.53" y1="241.51"/><line id="line3988" y2="226.27" x1="376.16" x2="378.83" y1="241.51"/><line id="line3990" y2="244.54" x1="390.33" x2="387.74" y1="237.52"/><line id="line3992" y2="236.16" x1="398.67" x2="406.44" y1="249.56"/><line id="line3994" y2="256.35" x1="413.32" x2="408.46" y1="250.6"/><line id="line3996" y2="254.75" x1="416.96" x2="428.94" y1="264.72"/><line id="line3998" y2="274.38" x1="430.4" x2="423.84" y1="270.62"/><line id="line4000" y2="279.88" x1="428.94" x2="443.6" y1="285.14"/><line id="line4002" y2="296.55" x1="439.47" x2="432.02" y1="295.27"/><line id="line4004" y2="308.36" x1="433.08" x2="448.7" y1="308.36"/><line id="line4006" y2="308.36" x1="440.69" x2="433.08" y1="308.36"/><line id="line4008" y2="321.44" x1="432.02" x2="439.47" y1="320.08"/><line id="line4010" y2="331.57" x1="443.6" x2="428.94" y1="336.83"/><line id="line4012" y2="346.01" x1="423.84" x2="430.4" y1="342.26"/><line id="line4014" y2="351.99" x1="428.94" x2="416.96" y1="361.88"/><line id="line4016" y2="366.03" x1="408.46" x2="413.32" y1="360.37"/><line id="line4018" y2="380.47" x1="398.67" x2="406.44" y1="367.15"/><line id="line4020" y2="372.09" x1="390.33" x2="387.74" y1="379.11"/><line id="line4022" y2="390.36" x1="376.16" x2="378.83" y1="375.2"/><line id="line4024" y2="376.24" x1="364.18" x2="364.18" y1="383.66"/><line id="line4026" y2="232.98" x1="364.18" x2="364.18" y1="240.39"/><line id="line4028" y2="390.36" x1="352.2" x2="349.53" y1="375.2"/><line id="line4030" y2="372.09" x1="338.03" x2="340.62" y1="379.11"/><line id="line4032" y2="380.47" x1="329.78" x2="321.92" y1="367.15"/><line id="line4034" y2="360.37" x1="315.04" x2="319.9" y1="366.03"/></g><g id="g4036"><path id="path4038" d="M370.66,262.26h-2.461l-7.088-13.178v13.178h-1.857v-14.731h3.082l6.467,12.03v-12.03h1.857v14.734z" stroke="#231F20" stroke-miterlimit="5" stroke-width="0.216" fill="#231F20"/></g><g id="g4040"><path id="path4042" d="M320.24,302.45l-3.885,14.731h-2.24l-3.143-12.228-3.072,12.228h-2.188l-3.957-14.731h2.039l3.143,12.248,3.092-12.248h2.018l3.123,12.367,3.123-12.367h1.954z" stroke="#231F20" stroke-miterlimit="5" stroke-width="0.216" fill="#231F20"/></g><g id="g4044"><path id="path4046" d="M371.41,368.34c0,0.574-0.135,1.141-0.406,1.702s-0.65,1.036-1.139,1.425c-0.535,0.422-1.16,0.751-1.873,0.989-0.713,0.237-1.57,0.356-2.574,0.356-1.078,0-2.047-0.099-2.908-0.297-0.859-0.198-1.734-0.491-2.625-0.88v-2.454h0.141c0.756,0.62,1.631,1.098,2.621,1.435s1.92,0.504,2.791,0.504c1.23,0,2.189-0.228,2.877-0.683,0.686-0.455,1.029-1.062,1.029-1.82,0-0.653-0.164-1.134-0.488-1.444s-0.818-0.55-1.48-0.722c-0.502-0.132-1.047-0.241-1.631-0.326-0.586-0.086-1.207-0.195-1.863-0.327-1.326-0.277-2.307-0.75-2.947-1.419-0.639-0.669-0.959-1.542-0.959-2.617,0-1.233,0.529-2.244,1.588-3.032,1.057-0.788,2.398-1.182,4.025-1.182,1.051,0,2.014,0.099,2.891,0.297s1.654,0.442,2.33,0.732v2.315h-0.141c-0.568-0.475-1.316-0.869-2.244-1.182s-1.875-0.47-2.846-0.47c-1.064,0-1.92,0.218-2.566,0.653-0.645,0.436-0.969,0.996-0.969,1.682,0,0.613,0.162,1.095,0.482,1.444,0.322,0.35,0.887,0.617,1.697,0.801,0.428,0.092,1.037,0.205,1.826,0.336,0.791,0.132,1.459,0.267,2.01,0.405,1.109,0.291,1.947,0.729,2.51,1.316s0.85,1.41,0.85,2.46z" stroke="#231F20" stroke-miterlimit="5" stroke-width="0.216" fill="#231F20"/></g><g id="g4048"><path id="path4050" d="M427.47,316.38h-9.85v-14.731h9.85v1.741h-7.861v4.037h7.861v1.741h-7.861v5.471h7.861v1.742z" stroke="#231F20" stroke-miterlimit="5" stroke-width="0.216" fill="#231F20"/></g><g id="g4052"><path id="path4054" d="M367.77,226.89c0,1.763-0.279,3.057-0.84,3.881-0.559,0.825-1.428,1.237-2.605,1.237-1.197,0-2.07-0.418-2.621-1.253s-0.826-2.119-0.826-3.851c0-1.746,0.277-3.035,0.836-3.868s1.428-1.25,2.611-1.25c1.195,0,2.068,0.423,2.619,1.27,0.56,0.84,0.83,2.12,0.83,3.83zm-1.76,3c0.156-0.356,0.262-0.775,0.318-1.256,0.055-0.481,0.084-1.061,0.084-1.738,0-0.668-0.029-1.249-0.084-1.741-0.057-0.493-0.164-0.91-0.324-1.253-0.156-0.339-0.369-0.594-0.641-0.765-0.27-0.171-0.615-0.257-1.039-0.257-0.42,0-0.768,0.086-1.041,0.257-0.275,0.171-0.492,0.431-0.652,0.778-0.152,0.325-0.256,0.75-0.312,1.272-0.055,0.523-0.084,1.097-0.084,1.722,0,0.686,0.025,1.259,0.074,1.721,0.049,0.461,0.154,0.875,0.314,1.24,0.148,0.343,0.355,0.604,0.627,0.785,0.27,0.181,0.627,0.271,1.074,0.271,0.418,0,0.766-0.085,1.043-0.257,0.28-0.18,0.49-0.44,0.64-0.78z" fill="#231F20"/></g></g><g id="compass_x5F_arrow"><polygon id="polygon4057" fill-rule="evenodd" stroke="#231F20" points="361.48,298.38,430.69,290.76,366.88,318.25" stroke-miterlimit="22.9256" clip-rule="evenodd" stroke-width="0.216" fill="#EC1C24"/><polygon id="polygon4059" fill-rule="evenodd" stroke="#231F20" points="361.48,298.38,297.67,325.88,366.88,318.25" stroke-miterlimit="22.9256" clip-rule="evenodd" stroke-width="0.216" fill="#0094D9"/><radialGradient id="SVGID_1_" gradientUnits="userSpaceOnUse" cy="307.59" cx="364.14" gradientTransform="matrix(1 0 0 0.9853 0 5.2456)" r="10.944"><stop id="stop4062" stop-color="#FFF" offset="0"/><stop id="stop4064" stop-color="#231F20" offset="1"/></radialGradient><polygon id="polygon4066" fill-rule="evenodd" stroke="#231F20" points="357.48,304.47,356.85,305.87,356.48,307.29,356.39,308.8,356.71,310.29,357.19,311.73,358.04,313,359.07,314.04,360.33,314.95,361.67,315.59,363.17,315.85,364.7,315.94,366.15,315.72,367.6,315.18,368.88,314.34,369.96,313.4,370.88,312.16,371.51,310.76,371.88,309.34,371.89,307.85,371.65,306.34,371.1,304.92,370.33,303.64,369.29,302.59,368.04,301.68,366.63,301.15,365.19,300.78,363.66,300.69,362.13,300.93,360.76,301.46,359.48,302.29,358.34,303.33" stroke-miterlimit="22.9256" clip-rule="evenodd" stroke-width="0.216" fill="url(#SVGID_1_)"/></g></g><g id="switch" fill-rule="evenodd" stroke="#231F20" clip-rule="evenodd" stroke-miterlimit="22.9256" stroke-width="0.216"><rect id="rect4069" height="38.866" width="110.38" y="756.13" x="206" fill="#A6A8AB"/><polygon id="polygon4071" points="242.46,775.56,251.79,791.61,270.59,791.61,279.99,775.56,270.59,759.6,251.79,759.6" fill="#58595B"/><polygon id="polygon4073" points="247.35,775.56,247.51,777.52,247.97,779.41,248.65,781.21,249.57,782.94,250.72,784.53,252.17,785.88,253.7,787.01,255.46,787.99,257.29,788.67,259.2,789.05,261.19,789.2,263.18,789.05,265.09,788.67,266.92,787.99,268.68,787.01,270.29,785.88,271.66,784.53,272.81,782.94,273.8,781.21,274.49,779.41,274.87,777.52,275.03,775.56,274.87,773.61,274.49,771.72,273.8,769.92,272.81,768.18,271.66,766.68,270.29,765.24,268.68,764.12,266.92,763.21,265.09,762.53,263.18,762.08,261.19,761.93,259.2,762.08,257.29,762.53,255.46,763.21,253.7,764.12,252.17,765.24,250.72,766.68,249.57,768.18,248.65,769.92,247.97,771.72,247.51,773.61" fill="#E6E7E8"/><polygon id="polygon4075" points="294.53,782.64,267.54,779.26,266.7,780.31,265.63,781.14,264.49,781.82,263.19,782.19,261.81,782.34,260.44,782.27,259.13,781.89,257.91,781.29,256.84,780.38,256,779.41,255.39,778.2,254.93,776.92,254.85,775.56,254.93,774.21,255.39,772.93,256,771.8,256.84,770.74,257.91,769.92,259.13,769.31,260.44,768.94,261.81,768.79,263.19,768.94,264.49,769.31,265.63,769.99,266.7,770.9,267.54,771.95,294.53,768.56,296.13,768.48,297.74,768.79,299.19,769.39,300.18,771.04,300.87,772.78,301.18,774.66,301.18,776.54,300.87,778.35,300.18,780.16,299.19,781.74,297.74,782.34,296.13,782.64" fill="#FFF"/></g></svg>
