<?xml version="1.0" encoding="UTF-8" standalone="no"?><!-- Created with Inkscape (http://www.inkscape.org/) -->
<svg xmlns:rdf="http://www.w3.org/1999/02/22-rdf-syntax-ns#" xmlns="http://www.w3.org/2000/svg"
    height="74.219" width="74.188" version="1.1" xmlns:cc="http://creativecommons.org/ns#"
    xmlns:dc="http://purl.org/dc/elements/1.1/">
    <metadata>
        <rdf:RDF>
            <cc:Work rdf:about="">
                <dc:format>image/svg+xml</dc:format>
                <dc:type rdf:resource="http://purl.org/dc/dcmitype/StillImage" />
                <dc:title />
            </cc:Work>
        </rdf:RDF>
    </metadata>
    <g stroke="#231f20" clip-rule="evenodd" fill-rule="evenodd" stroke-miterlimit="22.92560005"
        stroke-width="0.21600001" transform="translate(-520.04911,-363.82386)">
        <polygon transform="translate(471.14286,-212.45739)"
            points="91.773,576.86,88.886,576.51,86,576.39,83.115,576.51,80.228,576.86,77.343,577.43,74.571,578.24,71.859,579.22,69.203,580.43,66.664,581.87,64.239,583.49,61.988,585.28,59.852,587.24,57.889,589.38,56.042,591.69,54.425,594.06,53.041,596.59,51.829,599.25,50.789,601.96,50.04,604.79,49.462,607.62,49.114,610.5,49,613.39,49.114,616.33,49.462,619.22,50.04,622.05,50.789,624.88,51.829,627.59,53.041,630.19,54.425,632.73,56.042,635.15,57.889,637.46,59.852,639.6,61.988,641.56,64.239,643.35,66.664,644.97,69.203,646.41,71.859,647.62,74.571,648.6,77.343,649.41,80.228,649.99,83.115,650.28,86,650.39,88.886,650.28,91.773,649.99,94.658,649.41,97.429,648.6,100.14,647.62,102.8,646.41,105.34,644.97,107.76,643.35,110.01,641.56,112.15,639.6,114.11,637.46,115.96,635.15,117.58,632.73,118.96,630.19,120.17,627.59,121.21,624.88,121.96,622.05,122.54,619.22,122.89,616.33,123,613.39,122.89,610.5,122.54,607.62,121.96,604.79,121.21,601.96,120.17,599.25,118.96,596.59,117.58,594.06,115.96,591.69,114.11,589.38,112.15,587.24,110.01,585.28,107.76,583.49,105.34,581.87,102.8,580.43,100.14,579.22,97.429,578.24,94.658,577.43"
            fill="#e6e7e8" />
        <polygon transform="translate(471.14286,-212.45739)"
            points="92.81,626.09,98.699,620.26,110.19,637.64" fill="#ec1c24" />
    </g>
</svg>
