<?xml version="1.0" encoding="UTF-8" standalone="no"?><!-- Generator: Adobe Illustrator 16.0.4, SVG Export Plug-In . SVG Version: 6.00 Build 0)  -->
<svg xmlns:rdf="http://www.w3.org/1999/02/22-rdf-syntax-ns#" xmlns="http://www.w3.org/2000/svg" xml:space="preserve" height="38.219" viewBox="0 0 114.21875 38.21875" width="114.22" version="1.1" y="0px" x="0px" xmlns:cc="http://creativecommons.org/ns#" xmlns:dc="http://purl.org/dc/elements/1.1/"><metadata><rdf:RDF><cc:Work rdf:about=""><dc:format>image/svg+xml</dc:format><dc:type rdf:resource="http://purl.org/dc/dcmitype/StillImage"/><dc:title/></cc:Work></rdf:RDF></metadata><g stroke-miterlimit="22.92560005" clip-rule="evenodd" transform="translate(-218.14899,-742.28125)"><line stroke-width="3" y2="755.83" x2="382" stroke="#808184" y1="27.493" x1="382" fill="none"/><polyline stroke="#ec1c24" points="382,762.65,166,762.65,166,646.65" stroke-width="3" fill="none"/><polygon fill-rule="evenodd" stroke="#231f20" points="389.04,765.95,389.39,764.7,389.5,763.39,389.39,762.09,389.04,760.84,388.53,759.64,387.73,758.56,386.82,757.65,385.74,756.91,384.59,756.35,383.28,756,381.97,755.89,380.72,756,379.4,756.35,378.26,756.91,377.18,757.65,376.27,758.56,375.47,759.64,374.96,760.84,374.61,762.09,374.5,763.39,374.61,764.7,374.96,765.95,375.47,767.14,376.27,768.16,377.18,769.13,378.26,769.87,379.4,770.44,380.72,770.78,381.97,770.89,383.28,770.78,384.59,770.44,385.74,769.87,386.82,769.13,387.73,768.16,388.53,767.14" stroke-width="0.21600001" fill="#ec1c24"/><polyline stroke="#ec1c24" points="166,575.5,166,27.5,382,27.5" stroke-width="3" fill="none"/><polygon fill-rule="evenodd" stroke="#231f20" points="389.04,30.058,389.39,28.809,389.5,27.499,389.39,26.195,389.04,24.944,388.53,23.75,387.73,22.671,386.82,21.763,385.74,21.023,384.59,20.454,383.28,20.112,381.97,20,380.72,20.112,379.4,20.454,378.26,21.023,377.18,21.763,376.27,22.671,375.47,23.75,374.96,24.944,374.61,26.195,374.5,27.499,374.61,28.809,374.96,30.058,375.47,31.25,376.27,32.274,377.18,33.239,378.26,33.978,379.4,34.547,380.72,34.887,381.97,35,383.28,34.887,384.59,34.547,385.74,33.978,386.82,33.239,387.73,32.274,388.53,31.25" stroke-width="0.21600001" fill="#ec1c24"/></g><g fill-rule="evenodd" clip-rule="evenodd" transform="translate(-218.14899,-742.28125)"><polygon stroke="#231f20" points="24.762,562.33,23.587,563,22.527,563.84,21.647,564.83,20.942,565.95,20.412,567.17,20.059,568.44,20,569.72,20,657.06,20.059,658.34,20.412,659.61,20.942,660.84,21.647,661.95,22.527,662.95,23.587,663.78,24.762,664.45,26.057,664.94,27.408,665.28,28.76,665.39,143.24,665.39,144.59,665.28,145.94,664.94,147.24,664.45,148.41,663.78,149.41,662.95,150.35,661.95,151.06,660.84,151.59,659.61,151.88,658.34,152,657.06,152,569.72,151.88,568.44,151.59,567.17,151.06,565.95,150.35,564.83,149.41,563.84,148.41,563,147.24,562.33,145.94,561.83,144.59,561.5,143.24,561.39,28.76,561.39,27.408,561.5,26.057,561.83" stroke-miterlimit="22.92560005" stroke-width="0.21600001" fill="#a6a8ab"/><rect height="76" width="28" stroke="#231f20" stroke-miterlimit="22.926" y="575.39" x="152" stroke-width="0.216" fill="#a6a8ab"/><polygon stroke="#231f20" points="162.5,628.43,161.5,629.13,160.67,629.94,159.94,630.9,159.41,631.96,159.1,633.12,159,634.29,159.1,635.45,159.41,636.61,159.94,637.67,160.67,638.63,161.5,639.44,162.5,640.14,163.59,640.65,164.8,640.96,166,641.06,167.2,640.96,168.4,640.65,169.5,640.14,170.5,639.44,171.33,638.63,172.06,637.67,172.58,636.61,172.9,635.45,173,634.29,172.9,633.12,172.58,631.96,172.06,630.9,171.33,629.94,170.5,629.13,169.5,628.43,168.4,627.92,167.2,627.62,166,627.52,164.8,627.62,163.59,627.92" stroke-miterlimit="22.92560005" stroke-width="0.21600001" fill="#ec1c24"/><rect height="2.082" width="10.774" y="633.46" x="160.61" fill="#FFF"/><polygon stroke="#231f20" points="169.5,598.36,170.5,597.65,171.33,596.84,172.06,595.88,172.58,594.82,172.9,593.66,173,592.5,172.9,591.34,172.58,590.17,172.06,589.11,171.33,588.15,170.5,587.34,169.5,586.64,168.4,586.13,167.2,585.83,166,585.73,164.8,585.83,163.59,586.13,162.5,586.64,161.5,587.34,160.67,588.15,159.94,589.11,159.41,590.17,159.1,591.34,159,592.5,159.1,593.66,159.41,594.82,159.94,595.88,160.67,596.84,161.5,597.65,162.5,598.36,163.59,598.86,164.8,599.16,166,599.26,167.2,599.16,168.4,598.86" stroke-miterlimit="22.92560005" stroke-width="0.21600001" fill="#ec1c24"/><rect height="10.41" width="2.154" y="587.35" x="164.92" fill="#FFF"/><rect height="2.084" width="10.774" y="591.51" x="160.61" fill="#FFF"/><polygon stroke="#231f20" points="105.34,581.87,102.8,580.43,100.14,579.22,97.429,578.24,94.658,577.43,91.773,576.86,88.886,576.51,86,576.39,83.115,576.51,80.228,576.86,77.343,577.43,74.571,578.24,71.859,579.22,69.203,580.43,66.664,581.87,64.239,583.49,61.988,585.28,59.852,587.24,57.889,589.38,56.042,591.69,54.425,594.06,53.041,596.59,51.829,599.25,50.789,601.96,50.04,604.79,49.462,607.62,49.114,610.5,49,613.39,49.114,616.33,49.462,619.22,50.04,622.05,50.789,624.88,51.829,627.59,53.041,630.19,54.425,632.73,56.042,635.15,57.889,637.46,59.852,639.6,61.988,641.56,64.239,643.35,66.664,644.97,69.203,646.41,71.859,647.62,74.571,648.6,77.343,649.41,80.228,649.99,83.115,650.28,86,650.39,88.886,650.28,91.773,649.99,94.658,649.41,97.429,648.6,100.14,647.62,102.8,646.41,105.34,644.97,107.76,643.35,110.01,641.56,112.15,639.6,114.11,637.46,115.96,635.15,117.58,632.73,118.96,630.19,120.17,627.59,121.21,624.88,121.96,622.05,122.54,619.22,122.89,616.33,123,613.39,122.89,610.5,122.54,607.62,121.96,604.79,121.21,601.96,120.17,599.25,118.96,596.59,117.58,594.06,115.96,591.69,114.11,589.38,112.15,587.24,110.01,585.28,107.76,583.49" stroke-miterlimit="22.92560005" stroke-width="0.21600001" fill="#e6e7e8"/><polygon stroke="#231f20" points="98.699,620.26,110.19,637.64,92.81,626.09" stroke-miterlimit="22.92560005" stroke-width="0.21600001" fill="#ec1c24"/></g><g fill-rule="evenodd" transform="matrix(-1,0,0,1,332.375,-742.28125)" stroke="#231f20" clip-rule="evenodd" stroke-miterlimit="22.92560005" stroke-width="0.21600001"><rect height="38" width="114" y="742.39" x="218.26" fill="#a6a8ab"/><polygon points="284.97,745.78,265.55,745.78,255.92,761.39,265.55,777.07,284.97,777.07,294.68,761.39" fill="#58595b"/><polygon points="263.26,768.61,264.44,770.15,265.94,771.48,267.53,772.58,269.34,773.54,271.24,774.21,273.21,774.57,275.26,774.72,277.31,774.57,279.29,774.21,281.18,773.54,283,772.58,284.66,771.48,286.08,770.15,287.26,768.61,288.29,766.91,289,765.14,289.4,763.31,289.55,761.39,289.4,759.47,289,757.64,288.29,755.86,287.26,754.17,286.08,752.7,284.66,751.3,283,750.2,281.18,749.31,279.29,748.65,277.31,748.21,275.26,748.06,273.21,748.21,271.24,748.65,269.34,749.31,267.53,750.2,265.94,751.3,264.44,752.7,263.26,754.17,262.31,755.86,261.6,757.64,261.13,759.47,260.97,761.39,261.13,763.31,261.6,765.14,262.31,766.91" fill="#e6e7e8"/><polygon points="278.67,767.5,277.32,767.87,275.9,768.02,274.48,767.94,273.14,767.57,271.88,766.99,270.77,766.1,269.9,765.14,269.27,763.96,268.8,762.72,268.72,761.39,268.8,760.06,269.27,758.81,269.9,757.71,270.77,756.67,271.88,755.86,273.14,755.28,274.48,754.91,275.9,754.76,277.32,754.91,278.67,755.28,279.85,755.94,280.96,756.83,281.82,757.85,309.69,754.54,311.35,754.46,313.01,754.76,314.51,755.35,315.54,756.97,316.24,758.67,316.56,760.51,316.56,762.35,316.24,764.12,315.54,765.88,314.51,767.43,313.01,768.02,311.35,768.31,309.69,768.31,281.82,765,280.96,766.03,279.85,766.84" fill="#FFF"/></g><g transform="translate(-218.14899,-742.28125)"><polygon fill-rule="evenodd" stroke="#231f20" points="343.24,360.52,348.95,363.47,354.93,365.99,361.09,368,367.44,369.51,373.86,370.45,380.33,370.89,386.81,370.7,393.28,370.07,399.7,368.82,405.92,367.05,412.02,364.79,417.87,362.09,423.53,358.82,428.88,355.11,433.84,350.96,438.5,346.44,442.71,341.54,446.55,336.26,449.94,330.72,452.83,324.88,455.22,318.84,457.05,312.62,458.43,306.28,459.25,299.86,459.5,293.39,459.25,286.92,458.43,280.44,457.05,274.1,455.22,267.87,452.83,261.84,449.94,256.06,446.55,250.46,442.71,245.24,438.5,240.34,433.84,235.75,428.88,231.6,423.53,227.96,417.87,224.69,412.02,221.92,405.92,219.66,399.7,217.9,393.28,216.71,386.81,216.02,380.33,215.89,373.86,216.27,367.44,217.21,361.09,218.72,354.93,220.73,348.95,223.24,343.24,226.26,337.7,229.72,332.55,233.68,327.7,238.02,323.3,242.73,319.22,247.82,315.63,253.23,312.55,258.88,309.91,264.85,307.77,270.95,306.14,277.24,305.06,283.65,304.5,290.12,304.5,296.6,305.06,303.07,306.14,309.48,307.77,315.77,309.91,321.92,312.55,327.83,315.63,333.49,319.22,338.96,323.3,343.99,327.7,348.76,332.55,353.1,337.7,357" stroke-miterlimit="22.92560005" clip-rule="evenodd" stroke-width="0.21600001" fill="#404041"/><polygon fill-rule="evenodd" stroke="#231f20" points="344.55,358.13,350.09,361.02,355.87,363.47,361.84,365.42,367.95,366.87,374.17,367.75,380.39,368.12,386.68,368,392.91,367.37,399.07,366.18,405.11,364.54,410.96,362.34,416.61,359.64,422.08,356.5,427.24,352.98,432.02,348.95,436.55,344.55,440.64,339.84,444.28,334.75,447.55,329.4,450.32,323.81,452.64,317.96,454.47,312,455.73,305.84,456.54,299.61,456.79,293.39,456.54,287.1,455.73,280.88,454.47,274.78,452.64,268.75,450.32,262.97,447.55,257.31,444.28,251.97,440.64,246.94,436.55,242.16,432.02,237.76,427.24,233.8,422.08,230.22,416.61,227.08,410.96,224.44,405.11,222.24,399.07,220.54,392.91,219.35,386.68,218.72,380.39,218.59,374.17,218.97,367.95,219.91,361.84,221.3,355.87,223.24,350.09,225.7,344.55,228.59,339.27,231.98,334.31,235.75,329.59,239.9,325.31,244.49,321.42,249.39,317.96,254.61,314.94,260.14,312.42,265.86,310.35,271.77,308.78,277.8,307.71,284.02,307.2,290.25,307.2,296.53,307.71,302.75,308.78,308.92,310.35,315.01,312.42,320.92,314.94,326.64,317.96,332.11,321.42,337.32,325.31,342.23,329.59,346.82,334.31,351.03,339.27,354.8" stroke-miterlimit="22.92560005" clip-rule="evenodd" stroke-width="0.21600001" fill="#e6e7e8"/><line stroke-width="1.0001" y2="327.77" x2="340.97" stroke="#231f20" stroke-miterlimit="22.926" y1="335.56" clip-rule="evenodd" x1="331.66" fill="none"/><line stroke-width="1.0001" y2="323.06" x2="330.53" stroke="#231f20" stroke-miterlimit="22.926" y1="320.1" clip-rule="evenodd" x1="335.63" fill="none"/><line stroke-width="1.0001" y2="315.83" x2="320.28" stroke="#231f20" stroke-miterlimit="22.926" y1="311.68" clip-rule="evenodd" x1="331.66" fill="none"/><line stroke-width="1.0001" y2="302.63" x2="329.27" stroke="#231f20" stroke-miterlimit="22.926" y1="303.7" clip-rule="evenodd" x1="323.49" fill="none"/><line stroke-width="1.0001" y2="293.39" x2="322.61" stroke="#231f20" stroke-miterlimit="22.926" y1="293.39" clip-rule="evenodd" x1="328.46" fill="none"/><line stroke-width="1.0001" y2="293.39" x2="316.32" stroke="#231f20" stroke-miterlimit="22.926" y1="293.39" clip-rule="evenodd" x1="328.46" fill="none"/><line stroke-width="1.0001" y2="284.09" x2="329.27" stroke="#231f20" stroke-miterlimit="22.926" y1="283.08" clip-rule="evenodd" x1="323.49" fill="none"/><line stroke-width="1.0001" y2="270.95" x2="320.28" stroke="#231f20" stroke-miterlimit="22.926" y1="275.1" clip-rule="evenodd" x1="331.66" fill="none"/><line stroke-width="1.0001" y2="266.61" x2="335.63" stroke="#231f20" stroke-miterlimit="22.926" y1="263.66" clip-rule="evenodd" x1="330.53" fill="none"/><line stroke-width="1.0001" y2="251.15" x2="331.66" stroke="#231f20" stroke-miterlimit="22.926" y1="259.01" clip-rule="evenodd" x1="340.97" fill="none"/><line stroke-width="1.0001" y2="252.41" x2="347.58" stroke="#231f20" stroke-miterlimit="22.926" y1="247.88" clip-rule="evenodd" x1="343.8" fill="none"/><line stroke-width="1.0001" y2="236.51" x2="349.15" stroke="#231f20" stroke-miterlimit="22.926" y1="247.06" clip-rule="evenodd" x1="355.24" fill="none"/><line stroke-width="1.0001" y2="243.11" x2="363.67" stroke="#231f20" stroke-miterlimit="22.926" y1="237.58" clip-rule="evenodd" x1="361.66" fill="none"/><line stroke-width="1.0001" y2="228.71" x2="370.59" stroke="#231f20" stroke-miterlimit="22.926" y1="240.72" clip-rule="evenodd" x1="372.66" fill="none"/><line stroke-width="1.0001" y2="228.71" x2="393.35" stroke="#231f20" stroke-miterlimit="22.926" y1="240.72" clip-rule="evenodd" x1="391.27" fill="none"/><line stroke-width="1.0001" y2="243.11" x2="400.27" stroke="#231f20" stroke-miterlimit="22.926" y1="237.58" clip-rule="evenodd" x1="402.28" fill="none"/><line stroke-width="1.0001" y2="236.51" x2="414.79" stroke="#231f20" stroke-miterlimit="22.926" y1="247.06" clip-rule="evenodd" x1="408.75" fill="none"/><line stroke-width="1.0001" y2="252.41" x2="416.36" stroke="#231f20" stroke-miterlimit="22.926" y1="247.88" clip-rule="evenodd" x1="420.14" fill="none"/><line stroke-width="1.0001" y2="251.15" x2="432.27" stroke="#231f20" stroke-miterlimit="22.926" y1="259.01" clip-rule="evenodd" x1="422.97" fill="none"/><line stroke-width="1.0001" y2="266.61" x2="428.31" stroke="#231f20" stroke-miterlimit="22.926" y1="263.66" clip-rule="evenodd" x1="433.4" fill="none"/><line stroke-width="1.0001" y2="270.95" x2="443.65" stroke="#231f20" stroke-miterlimit="22.926" y1="275.1" clip-rule="evenodd" x1="432.27" fill="none"/><line stroke-width="1.0001" y2="284.09" x2="434.66" stroke="#231f20" stroke-miterlimit="22.926" y1="283.08" clip-rule="evenodd" x1="440.45" fill="none"/><line stroke-width="1.0001" y2="293.39" x2="447.61" stroke="#231f20" stroke-miterlimit="22.926" y1="293.39" clip-rule="evenodd" x1="435.48" fill="none"/><line stroke-width="1.0001" y2="293.39" x2="435.48" stroke="#231f20" stroke-miterlimit="22.926" y1="293.39" clip-rule="evenodd" x1="441.39" fill="none"/><line stroke-width="1.0001" y2="303.7" x2="440.45" stroke="#231f20" stroke-miterlimit="22.926" y1="302.63" clip-rule="evenodd" x1="434.66" fill="none"/><line stroke-width="1.0001" y2="311.68" x2="432.27" stroke="#231f20" stroke-miterlimit="22.926" y1="315.83" clip-rule="evenodd" x1="443.65" fill="none"/><line stroke-width="1.0001" y2="323.06" x2="433.4" stroke="#231f20" stroke-miterlimit="22.926" y1="320.1" clip-rule="evenodd" x1="428.31" fill="none"/><line stroke-width="1.0001" y2="327.77" x2="422.97" stroke="#231f20" stroke-miterlimit="22.926" y1="335.56" clip-rule="evenodd" x1="432.27" fill="none"/><line stroke-width="1.0001" y2="338.83" x2="420.14" stroke="#231f20" stroke-miterlimit="22.926" y1="334.37" clip-rule="evenodd" x1="416.36" fill="none"/><line stroke-width="1.0001" y2="350.21" x2="414.79" stroke="#231f20" stroke-miterlimit="22.926" y1="339.71" clip-rule="evenodd" x1="408.75" fill="none"/><line stroke-width="1.0001" y2="343.61" x2="400.27" stroke="#231f20" stroke-miterlimit="22.926" y1="349.14" clip-rule="evenodd" x1="402.28" fill="none"/><line stroke-width="1.0001" y2="358" x2="393.35" stroke="#231f20" stroke-miterlimit="22.926" y1="346.06" clip-rule="evenodd" x1="391.27" fill="none"/><line stroke-width="1.0001" y2="346.88" x2="381.97" stroke="#231f20" stroke-miterlimit="22.926" y1="352.73" clip-rule="evenodd" x1="381.97" fill="none"/><line stroke-width="1.0001" y2="233.99" x2="381.97" stroke="#231f20" stroke-miterlimit="22.926" y1="239.84" clip-rule="evenodd" x1="381.97" fill="none"/><line stroke-width="1.0001" y2="358" x2="370.59" stroke="#231f20" stroke-miterlimit="22.926" y1="346.06" clip-rule="evenodd" x1="372.66" fill="none"/><line stroke-width="1.0001" y2="343.61" x2="363.67" stroke="#231f20" stroke-miterlimit="22.926" y1="349.14" clip-rule="evenodd" x1="361.66" fill="none"/><line stroke-width="1.0001" y2="350.21" x2="349.15" stroke="#231f20" stroke-miterlimit="22.926" y1="339.71" clip-rule="evenodd" x1="355.24" fill="none"/><line stroke-width="1.0001" y2="334.37" x2="347.58" stroke="#231f20" stroke-miterlimit="22.926" y1="338.83" clip-rule="evenodd" x1="343.8" fill="none"/><text font-size="15.96490002px" stroke-width="0.21600001" transform="matrix(1.0004,0,0,1,376.5391,256.9697)" stroke="#231f20" stroke-miterlimit="5" font-family="Verdana" fill="#231f20">N</text>
<text font-size="15.96490002px" stroke-width="0.21600001" transform="matrix(1.0004,0,0,1,332.7266,299.3477)" stroke="#231f20" stroke-miterlimit="5" font-family="Verdana" fill="#231f20">W</text>
<text font-size="15.96490002px" stroke-width="0.21600001" transform="matrix(1.0004,0,0,1,376.5469,343.8667)" stroke="#231f20" stroke-miterlimit="5" font-family="Verdana" fill="#231f20">S</text>
<text font-size="15.96490002px" stroke-width="0.21600001" transform="matrix(1.0004,0,0,1,421.335,299.7529)" stroke="#231f20" stroke-miterlimit="5" font-family="Verdana" fill="#231f20">E</text>
<text font-size="10.63869953px" transform="matrix(1.0004,0,0,1,378.8232,232.9697)" font-family="Verdana" fill="#231f20">0</text>
<polygon fill-rule="evenodd" stroke="#231f20" points="374.5,293.39,382,243.39,389.5,293.39" stroke-miterlimit="22.92560005" clip-rule="evenodd" stroke-width="0.21600001" fill="#ec1c24"/><polygon fill-rule="evenodd" stroke="#231f20" points="374.5,293.39,382,343.39,389.5,293.39" stroke-miterlimit="22.92560005" clip-rule="evenodd" stroke-width="0.21600001" fill="#0094d9"/><radialGradient id="SVGID_1_" gradientUnits="userSpaceOnUse" cy="308.08" cx="382.62" gradientTransform="matrix(0.9464,0,0,0.9564,19.9077,-1.2446)" r="8.3018"><stop stop-color="#FFF" offset="0"/><stop stop-color="#231F20" offset="1"/></radialGradient><polygon fill-rule="evenodd" stroke="#231f20" points="380.89,298.95,382,299,383.1,298.95,384.15,298.59,385.08,298.06,385.96,297.36,386.65,296.54,387.12,295.54,387.47,294.48,387.58,293.42,387.47,292.3,387.12,291.24,386.65,290.3,385.96,289.42,385.08,288.72,384.15,288.19,383.1,287.9,382,287.78,380.89,287.9,379.85,288.19,378.92,288.72,378.04,289.42,377.4,290.3,376.88,291.24,376.53,292.3,376.42,293.42,376.53,294.48,376.88,295.54,377.4,296.54,378.04,297.36,378.92,298.06,379.85,298.59" stroke-miterlimit="22.92560005" clip-rule="evenodd" stroke-width="0.21600001" fill="url(#SVGID_1_)"/></g></svg>
