<?xml version="1.0" encoding="UTF-8" standalone="no"?><!-- Created with Inkscape (http://www.inkscape.org/) -->
<svg xmlns:rdf="http://www.w3.org/1999/02/22-rdf-syntax-ns#" xmlns="http://www.w3.org/2000/svg"
    height="38.219" width="114.22" version="1.1" xmlns:cc="http://creativecommons.org/ns#"
    xmlns:dc="http://purl.org/dc/elements/1.1/">
    <metadata>
        <rdf:RDF>
            <cc:Work rdf:about="">
                <dc:format>image/svg+xml</dc:format>
                <dc:type rdf:resource="http://purl.org/dc/dcmitype/StillImage" />
                <dc:title />
            </cc:Work>
        </rdf:RDF>
    </metadata>
    <g transform="translate(-317.89426,-513.25244)">
        <g fill-rule="evenodd" transform="translate(99.738007,-229.02881)" stroke="#231f20"
            clip-rule="evenodd" stroke-miterlimit="22.92560005" stroke-width="0.21600001">
            <rect height="38" width="114" y="742.39" x="218.26" fill="#a6a8ab" />
            <polygon
                points="284.97,777.07,294.68,761.39,284.97,745.78,265.55,745.78,255.92,761.39,265.55,777.07"
                fill="#58595b" />
            <polygon
                points="269.34,773.54,271.24,774.21,273.21,774.57,275.26,774.72,277.31,774.57,279.29,774.21,281.18,773.54,283,772.58,284.66,771.48,286.08,770.15,287.26,768.61,288.29,766.91,289,765.14,289.4,763.31,289.55,761.39,289.4,759.47,289,757.64,288.29,755.86,287.26,754.17,286.08,752.7,284.66,751.3,283,750.2,281.18,749.31,279.29,748.65,277.31,748.21,275.26,748.06,273.21,748.21,271.24,748.65,269.34,749.31,267.53,750.2,265.94,751.3,264.44,752.7,263.26,754.17,262.31,755.86,261.6,757.64,261.13,759.47,260.97,761.39,261.13,763.31,261.6,765.14,262.31,766.91,263.26,768.61,264.44,770.15,265.94,771.48,267.53,772.58"
                fill="#e6e7e8" />
            <polygon
                points="273.14,767.57,271.88,766.99,270.77,766.1,269.9,765.14,269.27,763.96,268.8,762.72,268.72,761.39,268.8,760.06,269.27,758.81,269.9,757.71,270.77,756.67,271.88,755.86,273.14,755.28,274.48,754.91,275.9,754.76,277.32,754.91,278.67,755.28,279.85,755.94,280.96,756.83,281.82,757.85,309.69,754.54,311.35,754.46,313.01,754.76,314.51,755.35,315.54,756.97,316.24,758.67,316.56,760.51,316.56,762.35,316.24,764.12,315.54,765.88,314.51,767.43,313.01,768.02,311.35,768.31,309.69,768.31,281.82,765,280.96,766.03,279.85,766.84,278.67,767.5,277.32,767.87,275.9,768.02,274.48,767.94"
                fill="#FFF" />
        </g>
    </g>
</svg>
